<svg width="60" height="60" viewBox="0 0 60 60" fill="none" xmlns="http://www.w3.org/2000/svg">
<path d="M37.4691 28.966C35.0836 28.966 33.1636 31.09 33.1636 33.745C33.1636 36.341 35.0836 38.465 37.4691 38.465C39.9127 38.465 41.8327 36.341 41.8327 33.745C41.8327 31.09 39.9127 28.966 37.4691 28.966ZM22.0509 28.966C19.6654 28.966 17.6873 31.09 17.6873 33.745C17.6873 36.341 19.6654 38.465 22.0509 38.465C24.4364 38.465 26.3564 36.341 26.3564 33.745C26.3564 31.09 24.4364 28.966 22.0509 28.966ZM41.5418 48.554C41.5418 48.554 40.0291 46.666 38.7491 45.073C44.3345 43.48 46.4291 39.94 46.4291 39.94C44.6836 41.12 42.9964 41.946 41.5418 42.477C39.3891 43.362 37.3527 44.011 35.3745 44.365C31.3018 45.132 27.5782 44.955 24.3782 44.365C21.9345 43.893 19.84 43.185 18.1527 42.477C17.1636 42.123 16.1164 41.651 15.0109 41.002C14.8945 40.943 14.7782 40.884 14.6618 40.766C14.5454 40.766 14.4873 40.707 14.4291 40.707C13.6727 40.235 13.2654 39.94 13.2654 39.94C13.2654 39.94 15.3018 43.362 20.7127 45.014C19.4327 46.666 17.8618 48.554 17.8618 48.554C8.49454 48.259 4.94545 42.005 4.94545 42.005C4.94545 28.14 11.0545 16.93 11.0545 16.93C17.1636 12.269 22.9236 12.446 22.9236 12.446L23.3891 12.918C15.7091 15.16 12.2182 18.582 12.2182 18.582C12.2182 18.582 13.1491 18.051 14.7782 17.343C19.3164 15.337 22.8654 14.806 24.3782 14.629C24.6109 14.629 24.8436 14.57 25.0764 14.511C27.6945 14.216 30.6036 14.098 33.6873 14.452C37.7018 14.924 42.0073 16.163 46.4291 18.582C46.4291 18.582 43.1127 15.337 35.8982 13.095L36.48 12.446C36.48 12.446 42.24 12.269 48.3491 16.93C48.3491 16.93 54.4582 28.14 54.4582 42.005C54.4582 42.005 50.9091 48.259 41.5418 48.554Z" fill="#E571F6"/>
</svg>
