<svg width="60" height="60" viewBox="0 0 60 60" fill="none" xmlns="http://www.w3.org/2000/svg">
<g clip-path="url(#clip0_1_155)">
<path d="M29.5109 18.4218C22.5547 18.4218 16.9438 24.0328 16.9438 30.989C16.9438 37.9453 22.5547 43.5562 29.5109 43.5562C36.4672 43.5562 42.0781 37.9453 42.0781 30.989C42.0781 24.0328 36.4672 18.4218 29.5109 18.4218ZM29.5109 39.1593C25.0156 39.1593 21.3406 35.4953 21.3406 30.989C21.3406 26.4828 25.0047 22.8187 29.5109 22.8187C34.0172 22.8187 37.6812 26.4828 37.6812 30.989C37.6812 35.4953 34.0062 39.1593 29.5109 39.1593ZM45.5234 17.9078C45.5234 19.5375 44.2109 20.839 42.5922 20.839C40.9625 20.839 39.6609 19.5265 39.6609 17.9078C39.6609 16.289 40.9734 14.9765 42.5922 14.9765C44.2109 14.9765 45.5234 16.289 45.5234 17.9078ZM53.8469 20.8828C53.6609 16.9562 52.764 13.4781 49.8875 10.6125C47.0219 7.74685 43.5437 6.84998 39.6172 6.6531C35.5703 6.42341 23.4406 6.42341 19.3937 6.6531C15.4781 6.83904 12 7.73591 9.12344 10.6015C6.24688 13.4672 5.36095 16.9453 5.16407 20.8718C4.93438 24.9187 4.93438 37.0484 5.16407 41.0953C5.35001 45.0218 6.24688 48.5 9.12344 51.3656C12 54.2312 15.4672 55.1281 19.3937 55.325C23.4406 55.5547 35.5703 55.5547 39.6172 55.325C43.5437 55.139 47.0219 54.2422 49.8875 51.3656C52.7531 48.5 53.65 45.0218 53.8469 41.0953C54.0765 37.0484 54.0765 24.9297 53.8469 20.8828ZM48.6187 45.4375C47.7656 47.5812 46.114 49.2328 43.9594 50.0968C40.7328 51.3765 33.0766 51.0812 29.5109 51.0812C25.9453 51.0812 18.2781 51.3656 15.0625 50.0968C12.9188 49.2437 11.2672 47.5922 10.4031 45.4375C9.12344 42.2109 9.41876 34.5547 9.41876 30.989C9.41876 27.4234 9.13438 19.7562 10.4031 16.5406C11.2563 14.3968 12.9078 12.7453 15.0625 11.8812C18.2891 10.6015 25.9453 10.8968 29.5109 10.8968C33.0766 10.8968 40.7437 10.6125 43.9594 11.8812C46.1031 12.7343 47.7547 14.3859 48.6187 16.5406C49.8984 19.7672 49.6031 27.4234 49.6031 30.989C49.6031 34.5547 49.8984 42.2218 48.6187 45.4375Z" fill="#E571F6"/>
</g>
<defs>
<clipPath id="clip0_1_155">
<rect width="49" height="56" fill="white" transform="translate(5 3)"/>
</clipPath>
</defs>
</svg>
