<svg width="620" height="475" viewBox="0 0 620 475" fill="none" xmlns="http://www.w3.org/2000/svg">
<g clip-path="url(#clip0_1_339)">
<path d="M132.504 28.5C132.771 12.9906 145.427 0.5 161 0.5H458C473.573 0.5 486.229 12.9906 486.496 28.5H132.504Z" fill="#030B31" stroke="url(#paint0_linear_1_339)"/>
<path d="M132.504 28.5C132.771 12.9906 145.427 0.5 161 0.5H458C473.573 0.5 486.229 12.9906 486.496 28.5H132.504Z" fill="url(#paint1_radial_1_339)" stroke="url(#paint2_linear_1_339)"/>
<rect x="132.5" y="26.5" width="354" height="241" fill="url(#paint3_linear_1_339)" stroke="url(#paint4_linear_1_339)"/>
<rect x="151.5" y="40.5" width="316" height="227" fill="url(#paint5_radial_1_339)" stroke="url(#paint6_linear_1_339)"/>
<circle cx="309.5" cy="156.5" r="102.5" fill="url(#paint7_radial_1_339)"/>
<path d="M17.1264 343.33C17.1264 302.042 50.5967 268.572 91.8844 268.572H527.601C568.889 268.572 602.359 302.042 602.359 343.33V450.067H17.1264V343.33Z" fill="#030B31" stroke="url(#paint8_linear_1_339)" stroke-width="0.940352"/>
<path d="M17.1562 343.33C17.1562 302.058 50.6132 268.602 91.8844 268.602H527.601C568.873 268.602 602.329 302.058 602.329 343.33V450.037H17.1562V343.33Z" fill="url(#paint9_radial_1_339)" stroke="url(#paint10_linear_1_339)"/>
<path d="M601.938 450.931C601.938 451.413 601.653 452.039 600.743 452.803C599.842 453.559 598.448 454.346 596.532 455.144C592.709 456.737 587.019 458.292 579.621 459.783C564.84 462.762 543.418 465.451 516.911 467.711C463.905 472.229 390.659 475.026 309.743 475.026C228.826 475.026 155.581 472.229 102.575 467.711C76.0673 465.451 54.6459 462.762 39.8645 459.783C32.4667 458.292 26.7764 456.737 22.9535 455.144C21.0379 454.346 19.6434 453.559 18.7424 452.803C17.8323 452.039 17.5475 451.413 17.5475 450.931C17.5475 450.449 17.8323 449.823 18.7424 449.059C19.6434 448.303 21.0379 447.516 22.9535 446.718C26.7764 445.126 32.4667 443.57 39.8645 442.079C54.6459 439.1 76.0673 436.411 102.575 434.151C155.581 429.633 228.826 426.837 309.743 426.837C390.659 426.837 463.905 429.633 516.911 434.151C543.418 436.411 564.84 439.1 579.621 442.079C587.019 443.57 592.709 445.126 596.532 446.718C598.448 447.516 599.842 448.303 600.743 449.059C601.653 449.823 601.938 450.449 601.938 450.931Z" fill="#030A30" stroke="url(#paint11_linear_1_339)" stroke-width="1.78242"/>
<mask id="path-9-inside-1_1_339" fill="white">
<path fill-rule="evenodd" clip-rule="evenodd" d="M16.6562 348.967V349.439V449.588H16.7073C16.6733 449.744 16.6562 449.9 16.6562 450.056C16.6562 457.009 50.4876 463.297 105.051 467.817V367.2C50.4876 362.679 16.6562 356.392 16.6562 349.439C16.6562 349.281 16.6736 349.124 16.7082 348.967H16.6562Z"/>
</mask>
<path fill-rule="evenodd" clip-rule="evenodd" d="M16.6562 348.967V349.439V449.588H16.7073C16.6733 449.744 16.6562 449.9 16.6562 450.056C16.6562 457.009 50.4876 463.297 105.051 467.817V367.2C50.4876 362.679 16.6562 356.392 16.6562 349.439C16.6562 349.281 16.6736 349.124 16.7082 348.967H16.6562Z" fill="url(#paint12_linear_1_339)"/>
<path d="M16.6562 348.967V348.027H15.7159V348.967H16.6562ZM16.6562 449.588H15.7159V450.529H16.6562V449.588ZM16.7073 449.588L17.626 449.789L17.8755 448.648H16.7073V449.588ZM105.051 467.817L104.973 468.754L105.991 468.838V467.817H105.051ZM105.051 367.2H105.991V366.334L105.128 366.262L105.051 367.2ZM16.7082 348.967L17.6265 349.17L17.8785 348.027H16.7082V348.967ZM15.7159 348.967V349.439H17.5966V348.967H15.7159ZM15.7159 349.439V449.588H17.5966V349.439H15.7159ZM16.6562 450.529H16.7073V448.648H16.6562V450.529ZM15.7887 449.388C15.7406 449.608 15.7159 449.831 15.7159 450.056H17.5966C17.5966 449.969 17.6061 449.88 17.626 449.789L15.7887 449.388ZM15.7159 450.056C15.7159 451.336 16.4953 452.434 17.6202 453.357C18.7571 454.29 20.3907 455.165 22.4405 456C26.5492 457.672 32.5535 459.265 40.2108 460.771C55.5403 463.787 77.6797 466.493 104.973 468.754L105.128 466.88C77.8587 464.621 55.8008 461.922 40.5739 458.926C32.9529 457.427 27.0892 455.861 23.1494 454.258C21.175 453.454 19.7392 452.663 18.8129 451.903C17.8744 451.133 17.5966 450.515 17.5966 450.056H15.7159ZM105.991 467.817V367.2H104.11V467.817H105.991ZM15.7159 349.439C15.7159 350.719 16.4953 351.817 17.6202 352.74C18.7571 353.672 20.3907 354.548 22.4405 355.383C26.5492 357.055 32.5535 358.648 40.2108 360.154C55.5403 363.17 77.6797 365.876 104.973 368.137L105.128 366.262C77.8587 364.003 55.8008 361.305 40.5739 358.309C32.9529 356.809 27.0892 355.244 23.1494 353.641C21.175 352.837 19.7392 352.046 18.8129 351.286C17.8744 350.516 17.5966 349.897 17.5966 349.439H15.7159ZM15.7899 348.765C15.741 348.987 15.7159 349.212 15.7159 349.439H17.5966C17.5966 349.351 17.6062 349.262 17.6265 349.17L15.7899 348.765ZM16.6562 349.908H16.7082V348.027H16.6562V349.908Z" fill="url(#paint13_linear_1_339)" mask="url(#path-9-inside-1_1_339)"/>
<mask id="path-11-inside-2_1_339" fill="white">
<path fill-rule="evenodd" clip-rule="evenodd" d="M603.178 348.213V448.835H603.126C603.16 448.99 603.177 449.146 603.177 449.302C603.177 456.255 569.346 462.543 514.783 467.063V366.446C569.346 361.925 603.177 355.638 603.177 348.685C603.177 348.527 603.159 348.37 603.125 348.213H603.178Z"/>
</mask>
<path fill-rule="evenodd" clip-rule="evenodd" d="M603.178 348.213V448.835H603.126C603.16 448.99 603.177 449.146 603.177 449.302C603.177 456.255 569.346 462.543 514.783 467.063V366.446C569.346 361.925 603.177 355.638 603.177 348.685C603.177 348.527 603.159 348.37 603.125 348.213H603.178Z" fill="url(#paint14_linear_1_339)"/>
<path d="M603.178 348.213V347.213H604.178V348.213H603.178ZM603.178 448.835H604.178V449.835H603.178V448.835ZM603.126 448.835L602.149 449.048L601.883 447.835H603.126V448.835ZM514.783 467.063L514.866 468.059L513.783 468.149V467.063H514.783ZM514.783 366.446H513.783V365.525L514.701 365.449L514.783 366.446ZM603.125 348.213L602.148 348.429L601.88 347.213H603.125V348.213ZM604.178 348.213V448.835H602.178V348.213H604.178ZM603.178 449.835H603.126V447.835H603.178V449.835ZM604.103 448.621C604.152 448.845 604.177 449.072 604.177 449.302H602.177C602.177 449.219 602.168 449.135 602.149 449.048L604.103 448.621ZM604.177 449.302C604.177 450.608 603.381 451.722 602.251 452.649C601.107 453.587 599.467 454.466 597.415 455.301C593.301 456.975 587.292 458.569 579.634 460.076C564.301 463.093 542.16 465.798 514.866 468.059L514.701 466.066C541.969 463.807 564.024 461.109 579.248 458.114C586.868 456.614 592.727 455.05 596.661 453.449C598.633 452.646 600.063 451.857 600.982 451.103C601.915 450.338 602.177 449.735 602.177 449.302H604.177ZM513.783 467.063V366.446H515.783V467.063H513.783ZM604.177 348.685C604.177 349.991 603.381 351.105 602.251 352.032C601.107 352.97 599.467 353.849 597.415 354.684C593.301 356.358 587.292 357.952 579.634 359.459C564.301 362.476 542.16 365.181 514.866 367.442L514.701 365.449C541.969 363.19 564.024 360.492 579.248 357.496C586.868 355.997 592.727 354.433 596.661 352.831C598.633 352.029 600.063 351.24 600.982 350.486C601.915 349.721 602.177 349.117 602.177 348.685H604.177ZM604.101 347.998C604.151 348.224 604.177 348.453 604.177 348.685H602.177C602.177 348.602 602.168 348.517 602.148 348.429L604.101 347.998ZM603.178 349.213H603.125V347.213H603.178V349.213Z" fill="url(#paint15_linear_1_339)" mask="url(#path-11-inside-2_1_339)"/>
<path d="M150.978 271.729C154.305 269.684 158.134 268.602 162.039 268.602H457.449C461.354 268.602 465.183 269.684 468.51 271.729L505.012 294.16C511.268 298.004 515.079 304.819 515.079 312.161V445.566C515.079 457.235 505.619 466.694 493.951 466.694H125.537C113.869 466.694 104.409 457.235 104.409 445.566V312.161C104.409 304.819 108.22 298.004 114.476 294.16L150.978 271.729Z" fill="url(#paint16_linear_1_339)" stroke="url(#paint17_linear_1_339)"/>
<path d="M349.798 355.59C349.798 377.985 331.643 396.14 309.248 396.14C286.853 396.14 268.698 377.985 268.698 355.59C268.698 333.195 286.853 315.04 309.248 315.04C331.643 315.04 349.798 333.195 349.798 355.59Z" stroke="url(#paint18_linear_1_339)" stroke-width="2.67362"/>
<path d="M192.037 435.91L194.572 437.643C192.561 440.38 189.674 441.749 185.909 441.749C182.423 441.749 179.557 440.626 177.311 438.381C175.065 436.135 173.942 433.269 173.942 429.782C173.942 426.274 175.086 423.419 177.375 421.216C179.664 418.991 182.551 417.879 186.038 417.879C187.663 417.879 189.224 418.189 190.722 418.81C192.219 419.43 193.374 420.296 194.187 421.408L191.684 423.333C191.128 422.542 190.337 421.9 189.31 421.408C188.283 420.916 187.193 420.671 186.038 420.671C183.471 420.671 181.385 421.547 179.781 423.301C178.198 425.055 177.407 427.216 177.407 429.782C177.407 432.392 178.188 434.573 179.749 436.327C181.311 438.06 183.375 438.926 185.941 438.926C188.615 438.926 190.647 437.921 192.037 435.91ZM200.732 428.274H200.796C201.16 427.504 201.78 426.863 202.657 426.349C203.555 425.815 204.539 425.547 205.609 425.547C207.47 425.547 208.881 426.125 209.844 427.28C210.806 428.435 211.287 429.921 211.287 431.739V441.172H208.272V432.766C208.272 429.665 207.127 428.114 204.839 428.114C203.641 428.114 202.657 428.574 201.887 429.493C201.117 430.413 200.732 431.622 200.732 433.119V441.172H197.716V416.917H200.732V428.274ZM218.474 432.221H227.521C227.478 430.959 227.093 429.932 226.366 429.141C225.639 428.328 224.602 427.921 223.254 427.921C221.971 427.921 220.88 428.338 219.982 429.173C219.083 430.007 218.581 431.023 218.474 432.221ZM230.569 433.44C230.569 433.889 230.558 434.231 230.537 434.466H218.474C218.516 435.771 219.019 436.873 219.982 437.771C220.944 438.648 222.088 439.086 223.415 439.086C225.318 439.086 226.794 438.316 227.842 436.776L229.96 438.477C228.355 440.552 226.174 441.589 223.415 441.589C221.083 441.589 219.158 440.851 217.64 439.375C216.142 437.899 215.394 435.974 215.394 433.6C215.394 431.247 216.142 429.322 217.64 427.825C219.137 426.307 221.008 425.547 223.254 425.547C225.5 425.547 227.275 426.264 228.58 427.697C229.906 429.108 230.569 431.023 230.569 433.44ZM247.613 428.05L245.432 429.814C245.111 429.301 244.619 428.884 243.956 428.563C243.314 428.242 242.64 428.082 241.934 428.082C240.416 428.082 239.207 428.617 238.309 429.686C237.411 430.755 236.962 432.049 236.962 433.568C236.962 435.087 237.411 436.381 238.309 437.45C239.229 438.52 240.448 439.054 241.967 439.054C243.528 439.054 244.747 438.498 245.624 437.386L247.645 439.215C246.276 440.798 244.384 441.589 241.967 441.589C239.592 441.589 237.635 440.851 236.095 439.375C234.555 437.899 233.785 435.964 233.785 433.568C233.785 431.194 234.545 429.269 236.063 427.793C237.603 426.296 239.55 425.547 241.902 425.547C243.015 425.547 244.095 425.772 245.143 426.221C246.191 426.649 247.014 427.258 247.613 428.05ZM253.714 416.917V432.574H253.81L260.194 425.964H264.237L257.114 432.862L264.847 441.172H260.676L253.81 433.279H253.714V441.172H250.698V416.917H253.714ZM285.038 431.739V431.322C285.038 430.231 284.696 429.408 284.011 428.852C283.348 428.274 282.439 427.986 281.284 427.986C279.573 427.986 278.129 428.574 276.953 429.75L275.349 427.825C276.932 426.307 279.006 425.547 281.573 425.547C283.669 425.547 285.252 426.103 286.321 427.216C287.391 428.306 287.926 429.739 287.926 431.515V438.156C287.926 439.482 288.001 440.487 288.15 441.172H285.423C285.252 440.445 285.166 439.717 285.166 438.99H285.07C283.937 440.701 282.236 441.557 279.969 441.557C279.327 441.557 278.696 441.471 278.076 441.3C277.456 441.129 276.868 440.872 276.311 440.53C275.755 440.188 275.306 439.707 274.964 439.086C274.622 438.445 274.451 437.707 274.451 436.873C274.451 435.996 274.654 435.236 275.06 434.595C275.488 433.932 276.023 433.429 276.664 433.087C277.306 432.723 278.119 432.445 279.103 432.253C280.108 432.039 281.049 431.9 281.926 431.836C282.824 431.771 283.862 431.739 285.038 431.739ZM285.038 433.921H284.3C279.787 433.921 277.531 434.884 277.531 436.809C277.531 437.643 277.83 438.252 278.429 438.637C279.028 439.001 279.766 439.183 280.643 439.183C282.012 439.183 283.081 438.776 283.851 437.964C284.642 437.129 285.038 436.049 285.038 434.723V433.921ZM296.043 416.917V441.172H293.027V416.917H296.043ZM304.377 416.917V441.172H301.361V416.917H304.377ZM320.732 416.917V432.574H320.828L327.213 425.964H331.255L324.133 432.862L331.865 441.172H327.694L320.828 433.279H320.732V441.172H317.716V416.917H320.732ZM336.092 432.221H345.14C345.097 430.959 344.712 429.932 343.985 429.141C343.258 428.328 342.22 427.921 340.873 427.921C339.589 427.921 338.499 428.338 337.6 429.173C336.702 430.007 336.199 431.023 336.092 432.221ZM348.188 433.44C348.188 433.889 348.177 434.231 348.156 434.466H336.092C336.135 435.771 336.638 436.873 337.6 437.771C338.563 438.648 339.707 439.086 341.033 439.086C342.937 439.086 344.413 438.316 345.461 436.776L347.578 438.477C345.974 440.552 343.792 441.589 341.033 441.589C338.702 441.589 336.777 440.851 335.258 439.375C333.761 437.899 333.012 435.974 333.012 433.6C333.012 431.247 333.761 429.322 335.258 427.825C336.755 426.307 338.627 425.547 340.873 425.547C343.119 425.547 344.894 426.264 346.199 427.697C347.525 429.108 348.188 431.023 348.188 433.44ZM353.457 425.964L358.173 437.899H358.238L362.441 425.964H365.649L358.27 444.765C357.735 446.156 357.072 447.182 356.281 447.845C355.511 448.53 354.42 448.872 353.008 448.872C352.302 448.872 351.639 448.797 351.019 448.647L351.308 445.984C351.821 446.156 352.324 446.241 352.815 446.241C353.543 446.241 354.11 446.038 354.516 445.631C354.922 445.246 355.297 444.605 355.639 443.706L356.601 441.172L350.088 425.964H353.457ZM371.645 428.274H371.71C372.073 427.504 372.694 426.863 373.571 426.349C374.469 425.815 375.453 425.547 376.522 425.547C378.383 425.547 379.795 426.125 380.757 427.28C381.72 428.435 382.201 429.921 382.201 431.739V441.172H379.185V432.766C379.185 429.665 378.041 428.114 375.752 428.114C374.554 428.114 373.571 428.574 372.801 429.493C372.03 430.413 371.645 431.622 371.645 433.119V441.172H368.63V416.917H371.645V428.274ZM400.36 427.793C401.921 429.29 402.702 431.205 402.702 433.536C402.702 435.867 401.91 437.792 400.328 439.311C398.766 440.83 396.82 441.589 394.488 441.589C392.157 441.589 390.211 440.83 388.649 439.311C387.088 437.792 386.307 435.867 386.307 433.536C386.307 431.205 387.077 429.29 388.617 427.793C390.179 426.296 392.136 425.547 394.488 425.547C396.841 425.547 398.798 426.296 400.36 427.793ZM398.178 437.45C399.098 436.359 399.558 435.055 399.558 433.536C399.558 432.017 399.098 430.723 398.178 429.654C397.28 428.584 396.05 428.05 394.488 428.05C392.927 428.05 391.686 428.584 390.767 429.654C389.868 430.723 389.419 432.017 389.419 433.536C389.419 435.055 389.868 436.359 390.767 437.45C391.686 438.52 392.927 439.054 394.488 439.054C396.05 439.054 397.28 438.52 398.178 437.45ZM409.964 416.917V441.172H406.948V416.917H409.964ZM417.304 432.221H426.351C426.308 430.959 425.923 429.932 425.196 429.141C424.469 428.328 423.432 427.921 422.084 427.921C420.801 427.921 419.71 428.338 418.811 429.173C417.913 430.007 417.411 431.023 417.304 432.221ZM429.399 433.44C429.399 433.889 429.388 434.231 429.367 434.466H417.304C417.346 435.771 417.849 436.873 418.811 437.771C419.774 438.648 420.918 439.086 422.244 439.086C424.148 439.086 425.624 438.316 426.672 436.776L428.789 438.477C427.185 440.552 425.004 441.589 422.244 441.589C419.913 441.589 417.988 440.851 416.469 439.375C414.972 437.899 414.224 435.974 414.224 433.6C414.224 431.247 414.972 429.322 416.469 427.825C417.967 426.307 419.838 425.547 422.084 425.547C424.33 425.547 426.105 426.264 427.41 427.697C428.736 429.108 429.399 431.023 429.399 433.44ZM443.909 428.05L441.823 429.814C441.481 429.258 440.989 428.809 440.347 428.467C439.727 428.103 439.043 427.921 438.294 427.921C437.524 427.921 436.861 428.093 436.305 428.435C435.749 428.756 435.471 429.248 435.471 429.911C435.471 430.509 435.738 430.969 436.273 431.29C436.807 431.611 437.695 431.91 438.936 432.188C442.336 432.937 444.037 434.434 444.037 436.68C444.037 438.349 443.449 439.589 442.272 440.402C441.117 441.193 439.684 441.589 437.973 441.589C436.775 441.589 435.631 441.354 434.54 440.883C433.449 440.413 432.551 439.739 431.845 438.862L433.995 437.033C434.401 437.653 434.968 438.167 435.695 438.573C436.444 438.958 437.224 439.151 438.037 439.151C438.893 439.151 439.609 438.98 440.187 438.637C440.764 438.274 441.053 437.707 441.053 436.937C441.053 436.274 440.743 435.771 440.123 435.429C439.524 435.087 438.508 434.744 437.075 434.402C436.476 434.253 435.952 434.092 435.503 433.921C435.054 433.75 434.594 433.515 434.123 433.215C433.653 432.894 433.289 432.488 433.032 431.996C432.776 431.483 432.647 430.884 432.647 430.199C432.647 428.659 433.203 427.504 434.316 426.734C435.449 425.943 436.807 425.547 438.39 425.547C439.502 425.547 440.561 425.772 441.566 426.221C442.593 426.649 443.374 427.258 443.909 428.05Z" fill="#E571F6"/>
<path fill-rule="evenodd" clip-rule="evenodd" d="M322.939 345.809C322.939 349.713 321.269 353.226 318.604 355.674L323.215 378.113H295.881L300.378 355.567C297.78 353.125 296.157 349.656 296.157 345.809C296.157 338.413 302.153 332.418 309.548 332.418C316.944 332.418 322.939 338.413 322.939 345.809ZM319.941 345.837C319.941 349.389 318.159 352.525 315.441 354.4L319.943 375.984H299.152L303.538 354.321C300.883 352.438 299.15 349.34 299.15 345.837C299.15 340.096 303.805 335.441 309.546 335.441C315.287 335.441 319.941 340.096 319.941 345.837Z" fill="url(#paint19_linear_1_339)"/>
<path d="M318.604 355.674L318.303 355.346L318.117 355.516L318.168 355.764L318.604 355.674ZM323.215 378.113V378.558H323.762L323.652 378.023L323.215 378.113ZM295.881 378.113L295.444 378.026L295.338 378.558H295.881V378.113ZM300.378 355.567L300.815 355.654L300.863 355.412L300.683 355.243L300.378 355.567ZM315.441 354.4L315.188 354.033L314.944 354.201L315.005 354.491L315.441 354.4ZM319.943 375.984V376.429H320.491L320.379 375.893L319.943 375.984ZM299.152 375.984L298.716 375.895L298.607 376.429H299.152V375.984ZM303.538 354.321L303.975 354.41L304.032 354.126L303.796 353.958L303.538 354.321ZM318.906 356.002C321.659 353.474 323.385 349.843 323.385 345.809H322.494C322.494 349.583 320.88 352.979 318.303 355.346L318.906 356.002ZM323.652 378.023L319.041 355.584L318.168 355.764L322.779 378.203L323.652 378.023ZM295.881 378.558H323.215V377.667H295.881V378.558ZM299.941 355.48L295.444 378.026L296.318 378.2L300.815 355.654L299.941 355.48ZM295.712 345.809C295.712 349.784 297.389 353.369 300.072 355.892L300.683 355.243C298.171 352.881 296.603 349.528 296.603 345.809H295.712ZM309.548 331.972C301.907 331.972 295.712 338.167 295.712 345.809H296.603C296.603 338.659 302.399 332.864 309.548 332.864V331.972ZM323.385 345.809C323.385 338.167 317.19 331.972 309.548 331.972V332.864C316.698 332.864 322.494 338.659 322.494 345.809H323.385ZM315.694 354.767C318.528 352.812 320.387 349.542 320.387 345.837H319.495C319.495 349.236 317.791 352.238 315.188 354.033L315.694 354.767ZM320.379 375.893L315.877 354.309L315.005 354.491L319.507 376.075L320.379 375.893ZM299.152 376.429H319.943V375.538H299.152V376.429ZM303.101 354.233L298.716 375.895L299.589 376.072L303.975 354.41L303.101 354.233ZM298.705 345.837C298.705 349.49 300.512 352.721 303.28 354.685L303.796 353.958C301.254 352.154 299.596 349.189 299.596 345.837H298.705ZM309.546 334.996C303.558 334.996 298.705 339.849 298.705 345.837H299.596C299.596 340.342 304.051 335.887 309.546 335.887V334.996ZM320.387 345.837C320.387 339.849 315.533 334.996 309.546 334.996V335.887C315.041 335.887 319.495 340.342 319.495 345.837H320.387Z" fill="#E571F6"/>
<g filter="url(#filter0_ddf_1_339)">
<path fill-rule="evenodd" clip-rule="evenodd" d="M315.44 354.401C318.16 352.526 319.942 349.39 319.942 345.837C319.942 340.096 315.288 335.441 309.547 335.441C303.806 335.441 299.151 340.096 299.151 345.837C299.151 349.339 300.883 352.437 303.537 354.32L299.151 375.984H319.942L315.44 354.401Z" fill="#E571F6"/>
</g>
<path d="M278.467 134.269V142.638V151.246C278.467 151.494 278.304 151.773 277.902 152.005L277.894 152.01L277.885 152.016L272.371 156.146L272.197 156.245L272.195 156.245C271.85 156.444 271.406 156.561 270.941 156.589V137.043L278.467 134.269Z" fill="url(#paint20_linear_1_339)" stroke="url(#paint21_linear_1_339)" stroke-width="0.335469"/>
<path d="M289.39 134.527V141.273V148.26C289.39 148.445 289.267 148.663 288.947 148.848L288.939 148.853L288.93 148.859L284.461 152.21L284.322 152.289L284.32 152.29C284.053 152.444 283.712 152.536 283.351 152.562V136.754L289.39 134.527Z" fill="url(#paint22_linear_1_339)" stroke="url(#paint23_linear_1_339)" stroke-width="0.335469"/>
<path d="M302.977 145.327V153.026V160.966C302.977 161.188 302.831 161.442 302.465 161.654L302.456 161.659L302.448 161.665L297.39 165.474L297.23 165.564L297.229 165.565C296.918 165.745 296.519 165.851 296.099 165.879V147.875L302.977 145.327Z" fill="url(#paint24_linear_1_339)" stroke="url(#paint25_linear_1_339)" stroke-width="0.335469"/>
<path d="M261.881 151.635L261.881 121.617L270.603 125.028L270.603 156.593C270.347 156.57 270.106 156.504 269.918 156.398L269.918 156.398L269.8 156.331L269.799 156.331L265.999 154.185L262.199 152.038C261.959 151.902 261.881 151.751 261.881 151.635Z" fill="url(#paint26_linear_1_339)" stroke="url(#paint27_linear_1_339)" stroke-width="0.335469"/>
<path d="M275.97 148.553L275.97 124.133L283.015 126.889L283.015 152.56C282.823 152.538 282.644 152.487 282.504 152.407L282.503 152.407L282.407 152.353L282.406 152.353L279.31 150.604L276.214 148.854C276.024 148.747 275.97 148.632 275.97 148.553Z" fill="url(#paint28_linear_1_339)" stroke="url(#paint29_linear_1_339)" stroke-width="0.335469"/>
<path d="M287.713 133.591L287.713 161.309C287.713 161.41 287.781 161.546 288.001 161.67L291.52 163.653L295.038 165.637L295.039 165.637L287.713 133.591ZM287.713 133.591L295.764 136.733L287.713 133.591ZM295.932 165.886V166.053C295.876 166.053 295.82 166.05 295.764 166.045V165.876C295.819 165.882 295.875 165.885 295.932 165.886Z" fill="url(#paint30_linear_1_339)" stroke="url(#paint31_linear_1_339)" stroke-width="0.335469"/>
<path d="M311.796 148.112L311.796 160.092C311.457 160.086 311.121 160.012 310.861 159.865L310.742 159.799L274.808 139.486L271.008 137.339C270.74 137.187 270.605 136.99 270.605 136.79L270.605 126.402L311.796 148.112Z" fill="url(#paint32_linear_1_339)"/>
<path d="M319.574 143.584L319.657 143.438L319.574 143.584C319.808 143.717 319.887 143.867 319.887 143.982C319.888 144.097 319.812 144.247 319.58 144.379L311.979 148.727L312.062 148.872L311.979 148.727C311.748 148.859 311.434 148.93 311.11 148.93C310.787 148.93 310.472 148.859 310.239 148.727L306.413 146.553L306.413 146.552L262.194 121.684C262.194 121.684 262.194 121.684 262.194 121.684C261.96 121.551 261.882 121.401 261.881 121.286C261.88 121.172 261.956 121.022 262.188 120.889C262.188 120.889 262.188 120.889 262.188 120.889L269.787 116.542L269.787 116.542C270.018 116.41 270.332 116.339 270.656 116.339C270.979 116.339 271.294 116.41 271.527 116.542L271.528 116.542L315.748 141.41L315.749 141.411L319.574 143.584Z" fill="url(#paint33_linear_1_339)" stroke="url(#paint34_linear_1_339)" stroke-width="0.335469"/>
<path fill-rule="evenodd" clip-rule="evenodd" d="M350.797 185.643C360.456 176.032 361.679 156.051 353.528 141.013C345.378 125.975 330.94 121.576 321.281 131.187C311.622 140.797 310.399 160.778 318.55 175.816C326.701 190.854 341.138 195.253 350.797 185.643ZM342.227 169.888C346.286 165.83 346.802 157.403 343.379 151.065C339.955 144.726 333.889 142.878 329.829 146.936C325.769 150.993 325.253 159.421 328.677 165.759C332.101 172.097 338.167 173.946 342.227 169.888Z" fill="url(#paint35_linear_1_339)"/>
<mask id="path-28-inside-3_1_339" fill="white">
<path fill-rule="evenodd" clip-rule="evenodd" d="M344.053 186.217C351.628 176.741 351.481 157.138 343.725 142.434C335.969 127.73 323.542 123.492 315.967 132.968C308.393 142.445 308.54 162.047 316.296 176.751C324.051 191.456 336.479 195.694 344.053 186.217ZM335.965 170.815C339.154 166.826 339.092 158.574 335.827 152.384C332.562 146.194 327.33 144.409 324.142 148.399C320.953 152.388 321.015 160.64 324.28 166.83C327.545 173.02 332.777 174.804 335.965 170.815Z"/>
</mask>
<path fill-rule="evenodd" clip-rule="evenodd" d="M344.053 186.217C351.628 176.741 351.481 157.138 343.725 142.434C335.969 127.73 323.542 123.492 315.967 132.968C308.393 142.445 308.54 162.047 316.296 176.751C324.051 191.456 336.479 195.694 344.053 186.217ZM335.965 170.815C339.154 166.826 339.092 158.574 335.827 152.384C332.562 146.194 327.33 144.409 324.142 148.399C320.953 152.388 321.015 160.64 324.28 166.83C327.545 173.02 332.777 174.804 335.965 170.815Z" fill="url(#paint36_linear_1_339)"/>
<path d="M343.515 142.696C347.364 149.992 349.318 158.492 349.376 166.323C349.435 174.154 347.601 181.286 343.897 185.92L344.21 186.514C348.08 181.672 349.96 174.264 349.899 166.249C349.839 158.234 347.842 149.58 343.934 142.172L343.515 142.696ZM316.124 133.265C319.828 128.631 324.736 127.327 329.701 129.02C334.666 130.713 339.667 135.4 343.515 142.696L343.934 142.172C340.027 134.764 334.936 129.98 329.855 128.247C324.774 126.514 319.681 127.829 315.811 132.672L316.124 133.265ZM316.505 176.489C312.657 169.193 310.703 160.694 310.644 152.863C310.585 145.031 312.42 137.899 316.124 133.265L315.811 132.672C311.94 137.514 310.061 144.921 310.121 152.936C310.181 160.951 312.179 169.605 316.086 177.013L316.505 176.489ZM343.897 185.92C340.193 190.555 335.284 191.859 330.319 190.165C325.355 188.472 320.353 183.785 316.505 176.489L316.086 177.013C319.994 184.422 325.084 189.206 330.165 190.939C335.247 192.671 340.339 191.356 344.21 186.514L343.897 185.92ZM335.618 152.646C337.22 155.685 338.03 159.218 338.055 162.461C338.079 165.705 337.32 168.628 335.809 170.518L336.122 171.112C337.799 169.013 338.603 165.815 338.578 162.388C338.552 158.96 337.699 155.273 336.036 152.122L335.618 152.646ZM324.298 148.696C325.809 146.805 327.822 146.259 329.879 146.961C331.935 147.662 334.015 149.607 335.618 152.646L336.036 152.122C334.374 148.97 332.206 146.928 330.033 146.187C327.86 145.446 325.663 146.003 323.985 148.102L324.298 148.696ZM324.489 166.568C322.887 163.529 322.077 159.996 322.052 156.753C322.028 153.509 322.787 150.586 324.298 148.696L323.985 148.102C322.308 150.201 321.504 153.399 321.529 156.826C321.555 160.254 322.408 163.941 324.071 167.092L324.489 166.568ZM335.809 170.518C334.298 172.409 332.285 172.955 330.228 172.253C328.172 171.552 326.092 169.607 324.489 166.568L324.071 167.092C325.733 170.244 327.901 172.286 330.074 173.027C332.247 173.768 334.444 173.211 336.122 171.112L335.809 170.518Z" fill="#9DE3B5" mask="url(#path-28-inside-3_1_339)"/>
<rect x="169.5" y="154.5" width="2" height="113" fill="url(#paint37_radial_1_339)" stroke="url(#paint38_linear_1_339)"/>
<rect x="190.5" y="154.5" width="2" height="113" fill="url(#paint39_radial_1_339)" stroke="url(#paint40_linear_1_339)"/>
<rect x="212.5" y="154.5" width="2" height="113" fill="url(#paint41_radial_1_339)" stroke="url(#paint42_linear_1_339)"/>
<rect x="233.5" y="154.5" width="2" height="113" fill="url(#paint43_radial_1_339)" stroke="url(#paint44_linear_1_339)"/>
<rect x="255.5" y="154.5" width="2" height="113" fill="url(#paint45_radial_1_339)" stroke="url(#paint46_linear_1_339)"/>
<rect x="276.5" y="154.5" width="2" height="113" fill="url(#paint47_radial_1_339)" stroke="url(#paint48_linear_1_339)"/>
<rect x="297.5" y="154.5" width="2" height="113" fill="url(#paint49_radial_1_339)" stroke="url(#paint50_linear_1_339)"/>
<rect x="319.5" y="154.5" width="2" height="113" fill="url(#paint51_radial_1_339)" stroke="url(#paint52_linear_1_339)"/>
<rect x="340.5" y="154.5" width="2" height="113" fill="url(#paint53_radial_1_339)" stroke="url(#paint54_linear_1_339)"/>
<rect x="362.5" y="154.5" width="2" height="113" fill="url(#paint55_radial_1_339)" stroke="url(#paint56_linear_1_339)"/>
<rect x="383.5" y="154.5" width="2" height="113" fill="url(#paint57_radial_1_339)" stroke="url(#paint58_linear_1_339)"/>
<rect x="405.5" y="154.5" width="2" height="113" fill="url(#paint59_radial_1_339)" stroke="url(#paint60_linear_1_339)"/>
<rect x="426.5" y="154.5" width="2" height="113" fill="url(#paint61_radial_1_339)" stroke="url(#paint62_linear_1_339)"/>
<rect x="447.5" y="154.5" width="2" height="113" fill="url(#paint63_radial_1_339)" stroke="url(#paint64_linear_1_339)"/>
<rect x="0.5" y="-0.5" width="2" height="113" transform="matrix(1 0 0 -1 169 153)" fill="url(#paint65_radial_1_339)" stroke="url(#paint66_linear_1_339)"/>
<rect x="0.5" y="-0.5" width="2" height="113" transform="matrix(1 0 0 -1 190 153)" fill="url(#paint67_radial_1_339)" stroke="url(#paint68_linear_1_339)"/>
<rect x="0.5" y="-0.5" width="2" height="113" transform="matrix(1 0 0 -1 212 153)" fill="url(#paint69_radial_1_339)" stroke="url(#paint70_linear_1_339)"/>
<rect x="0.5" y="-0.5" width="2" height="113" transform="matrix(1 0 0 -1 233 153)" fill="url(#paint71_radial_1_339)" stroke="url(#paint72_linear_1_339)"/>
<rect x="0.5" y="-0.5" width="2" height="113" transform="matrix(1 0 0 -1 255 153)" fill="url(#paint73_radial_1_339)" stroke="url(#paint74_linear_1_339)"/>
<rect x="0.5" y="-0.5" width="2" height="113" transform="matrix(1 0 0 -1 276 153)" fill="url(#paint75_radial_1_339)" stroke="url(#paint76_linear_1_339)"/>
<rect x="0.5" y="-0.5" width="2" height="113" transform="matrix(1 0 0 -1 297 153)" fill="url(#paint77_radial_1_339)" stroke="url(#paint78_linear_1_339)"/>
<rect x="0.5" y="-0.5" width="2" height="113" transform="matrix(1 0 0 -1 319 153)" fill="url(#paint79_radial_1_339)" stroke="url(#paint80_linear_1_339)"/>
<rect x="0.5" y="-0.5" width="2" height="113" transform="matrix(1 0 0 -1 340 153)" fill="url(#paint81_radial_1_339)" stroke="url(#paint82_linear_1_339)"/>
<rect x="0.5" y="-0.5" width="2" height="113" transform="matrix(1 0 0 -1 362 153)" fill="url(#paint83_radial_1_339)" stroke="url(#paint84_linear_1_339)"/>
<rect x="0.5" y="-0.5" width="2" height="113" transform="matrix(1 0 0 -1 383 153)" fill="url(#paint85_radial_1_339)" stroke="url(#paint86_linear_1_339)"/>
<rect x="0.5" y="-0.5" width="2" height="113" transform="matrix(1 0 0 -1 405 153)" fill="url(#paint87_radial_1_339)" stroke="url(#paint88_linear_1_339)"/>
<rect x="0.5" y="-0.5" width="2" height="113" transform="matrix(1 0 0 -1 426 153)" fill="url(#paint89_radial_1_339)" stroke="url(#paint90_linear_1_339)"/>
<rect x="0.5" y="-0.5" width="2" height="113" transform="matrix(1 0 0 -1 447 153)" fill="url(#paint91_radial_1_339)" stroke="url(#paint92_linear_1_339)"/>
</g>
<defs>
<filter id="filter0_ddf_1_339" x="279.545" y="315.835" width="60.0038" height="79.7554" filterUnits="userSpaceOnUse" color-interpolation-filters="sRGB">
<feFlood flood-opacity="0" result="BackgroundImageFix"/>
<feColorMatrix in="SourceAlpha" type="matrix" values="0 0 0 0 0 0 0 0 0 0 0 0 0 0 0 0 0 0 127 0" result="hardAlpha"/>
<feOffset dx="3.56483" dy="3.56483"/>
<feGaussianBlur stdDeviation="8.02087"/>
<feComposite in2="hardAlpha" operator="out"/>
<feColorMatrix type="matrix" values="0 0 0 0 0.898039 0 0 0 0 0.443137 0 0 0 0 0.964706 0 0 0 1 0"/>
<feBlend mode="normal" in2="BackgroundImageFix" result="effect1_dropShadow_1_339"/>
<feColorMatrix in="SourceAlpha" type="matrix" values="0 0 0 0 0 0 0 0 0 0 0 0 0 0 0 0 0 0 127 0" result="hardAlpha"/>
<feOffset dx="-3.56483" dy="-3.56483"/>
<feGaussianBlur stdDeviation="8.02087"/>
<feComposite in2="hardAlpha" operator="out"/>
<feColorMatrix type="matrix" values="0 0 0 0 0.898039 0 0 0 0 0.443137 0 0 0 0 0.964706 0 0 0 1 0"/>
<feBlend mode="normal" in2="effect1_dropShadow_1_339" result="effect2_dropShadow_1_339"/>
<feBlend mode="normal" in="SourceGraphic" in2="effect2_dropShadow_1_339" result="shape"/>
<feGaussianBlur stdDeviation="2.22802" result="effect3_foregroundBlur_1_339"/>
</filter>
<linearGradient id="paint0_linear_1_339" x1="309.5" y1="-53.5" x2="310.166" y2="28.9946" gradientUnits="userSpaceOnUse">
<stop stop-color="#E571F6"/>
<stop offset="1" stop-opacity="0"/>
</linearGradient>
<radialGradient id="paint1_radial_1_339" cx="0" cy="0" r="1" gradientUnits="userSpaceOnUse" gradientTransform="translate(310 29) rotate(-90) scale(197 2411.55)">
<stop stop-color="#0F0F38"/>
<stop offset="1" stop-color="#E571F6"/>
</radialGradient>
<linearGradient id="paint2_linear_1_339" x1="309.5" y1="0" x2="309.48" y2="32.8868" gradientUnits="userSpaceOnUse">
<stop stop-color="#E571F6"/>
<stop offset="1" stop-opacity="0"/>
</linearGradient>
<linearGradient id="paint3_linear_1_339" x1="309.5" y1="26" x2="309.5" y2="244.442" gradientUnits="userSpaceOnUse">
<stop stop-color="#0D0E37"/>
<stop offset="1" stop-color="#0D0E37"/>
</linearGradient>
<linearGradient id="paint4_linear_1_339" x1="309.5" y1="26" x2="309.5" y2="242.658" gradientUnits="userSpaceOnUse">
<stop stop-color="#E571F6" stop-opacity="0"/>
<stop offset="1" stop-color="#E571F6"/>
</linearGradient>
<radialGradient id="paint5_radial_1_339" cx="0" cy="0" r="1" gradientUnits="userSpaceOnUse" gradientTransform="translate(309.5 154) rotate(90) scale(114 158.5)">
<stop stop-color="#030A30"/>
<stop offset="1" stop-color="#030A30" stop-opacity="0"/>
</radialGradient>
<linearGradient id="paint6_linear_1_339" x1="309.5" y1="40" x2="309.5" y2="268" gradientUnits="userSpaceOnUse">
<stop stop-color="#E571F6"/>
<stop offset="0.232292" stop-color="#37ABD2" stop-opacity="0"/>
<stop offset="0.471875" stop-color="#E571F6"/>
<stop offset="0.747917" stop-color="#37ABD2" stop-opacity="0"/>
<stop offset="1" stop-color="#E571F6"/>
</linearGradient>
<radialGradient id="paint7_radial_1_339" cx="0" cy="0" r="1" gradientUnits="userSpaceOnUse" gradientTransform="translate(310 152.5) rotate(133.884) scale(108.915)">
<stop stop-color="#97DDB0" stop-opacity="0.84"/>
<stop offset="1" stop-color="#061640" stop-opacity="0"/>
</radialGradient>
<linearGradient id="paint8_linear_1_339" x1="309.743" y1="268.102" x2="309.273" y2="474.987" gradientUnits="userSpaceOnUse">
<stop stop-color="#E571F6"/>
<stop offset="1" stop-opacity="0"/>
</linearGradient>
<radialGradient id="paint9_radial_1_339" cx="0" cy="0" r="1" gradientUnits="userSpaceOnUse" gradientTransform="translate(310.139 268.102) rotate(90) scale(599.488 1926.18)">
<stop stop-color="#E571F6" stop-opacity="0"/>
<stop offset="1" stop-color="#E571F6"/>
</radialGradient>
<linearGradient id="paint10_linear_1_339" x1="309.743" y1="268.102" x2="309.273" y2="474.987" gradientUnits="userSpaceOnUse">
<stop stop-color="#E571F6"/>
<stop offset="1" stop-opacity="0"/>
</linearGradient>
<linearGradient id="paint11_linear_1_339" x1="309.272" y1="239.259" x2="309.745" y2="475.917" gradientUnits="userSpaceOnUse">
<stop stop-color="#E571F6"/>
<stop offset="0.930208" stop-color="#E571F6"/>
</linearGradient>
<linearGradient id="paint12_linear_1_339" x1="64.2489" y1="433.479" x2="61.0761" y2="359.711" gradientUnits="userSpaceOnUse">
<stop stop-color="#030A30"/>
<stop offset="1" stop-color="#030A30" stop-opacity="0"/>
</linearGradient>
<linearGradient id="paint13_linear_1_339" x1="60.8535" y1="348.967" x2="60.8535" y2="467.817" gradientUnits="userSpaceOnUse">
<stop stop-color="#E571F6"/>
<stop offset="1" stop-opacity="0"/>
</linearGradient>
<linearGradient id="paint14_linear_1_339" x1="555.585" y1="432.725" x2="558.758" y2="358.958" gradientUnits="userSpaceOnUse">
<stop stop-color="#030A30"/>
<stop offset="1" stop-color="#030A30" stop-opacity="0"/>
</linearGradient>
<linearGradient id="paint15_linear_1_339" x1="558.98" y1="348.213" x2="558.98" y2="467.063" gradientUnits="userSpaceOnUse">
<stop stop-color="#E571F6"/>
<stop offset="1" stop-opacity="0"/>
</linearGradient>
<linearGradient id="paint16_linear_1_339" x1="314.503" y1="354.699" x2="314.503" y2="268.102" gradientUnits="userSpaceOnUse">
<stop stop-color="#030A30"/>
<stop offset="0.523958" stop-color="#030A2F" stop-opacity="0.02"/>
<stop offset="0.725079" stop-color="#B159C8" stop-opacity="0.34"/>
<stop offset="1" stop-color="#E571F6" stop-opacity="0"/>
</linearGradient>
<linearGradient id="paint17_linear_1_339" x1="309.744" y1="268.102" x2="309.276" y2="454.047" gradientUnits="userSpaceOnUse">
<stop stop-color="#E571F6"/>
<stop offset="1" stop-opacity="0"/>
</linearGradient>
<linearGradient id="paint18_linear_1_339" x1="309.248" y1="313.703" x2="309.248" y2="397.477" gradientUnits="userSpaceOnUse">
<stop stop-color="#E571F6"/>
<stop offset="0.247917" stop-color="#E571F6" stop-opacity="0"/>
<stop offset="0.482292" stop-color="#E571F6"/>
<stop offset="0.753125" stop-color="#E571F6" stop-opacity="0"/>
<stop offset="1" stop-color="#E571F6"/>
</linearGradient>
<linearGradient id="paint19_linear_1_339" x1="309.249" y1="355.144" x2="309.249" y2="332.418" gradientUnits="userSpaceOnUse">
<stop stop-color="#37ABD2" stop-opacity="0"/>
<stop offset="0.612679" stop-color="#37ABD2"/>
<stop offset="1" stop-color="#37ABD2" stop-opacity="0"/>
</linearGradient>
<linearGradient id="paint20_linear_1_339" x1="270.773" y1="137.706" x2="274.631" y2="153.305" gradientUnits="userSpaceOnUse">
<stop stop-color="#9DE3B5"/>
<stop offset="1" stop-color="#094E3D"/>
</linearGradient>
<linearGradient id="paint21_linear_1_339" x1="277.452" y1="154.109" x2="269.545" y2="153.206" gradientUnits="userSpaceOnUse">
<stop stop-color="#9DE3B5"/>
<stop offset="0.0001" stop-color="#9DE3B5"/>
<stop offset="1" stop-color="#9DE3B5" stop-opacity="0.0697988"/>
</linearGradient>
<linearGradient id="paint22_linear_1_339" x1="287.628" y1="146.764" x2="283.183" y2="152.299" gradientUnits="userSpaceOnUse">
<stop stop-color="#9DE3B5"/>
<stop offset="1" stop-color="#094E3D"/>
</linearGradient>
<linearGradient id="paint23_linear_1_339" x1="288.598" y1="150.583" x2="282.187" y2="149.852" gradientUnits="userSpaceOnUse">
<stop stop-color="#9DE3B5"/>
<stop offset="0.0001" stop-color="#9DE3B5"/>
<stop offset="1" stop-color="#9DE3B5" stop-opacity="0.0697988"/>
</linearGradient>
<linearGradient id="paint24_linear_1_339" x1="299.454" y1="142.822" x2="306.212" y2="147.494" gradientUnits="userSpaceOnUse">
<stop stop-color="#9DE3B5"/>
<stop offset="1" stop-color="#094E3D"/>
</linearGradient>
<linearGradient id="paint25_linear_1_339" x1="302.059" y1="163.606" x2="294.804" y2="162.781" gradientUnits="userSpaceOnUse">
<stop stop-color="#9DE3B5"/>
<stop offset="0.0001" stop-color="#9DE3B5"/>
<stop offset="1" stop-color="#9DE3B5" stop-opacity="0.0697988"/>
</linearGradient>
<linearGradient id="paint26_linear_1_339" x1="268.59" y1="126.049" x2="261.713" y2="151.545" gradientUnits="userSpaceOnUse">
<stop stop-color="#9DE3B5"/>
<stop offset="1" stop-color="#094E3D"/>
</linearGradient>
<linearGradient id="paint27_linear_1_339" x1="263.474" y1="150.538" x2="259.852" y2="147.156" gradientUnits="userSpaceOnUse">
<stop stop-color="#9DE3B5"/>
<stop offset="1" stop-color="#9DE3B5" stop-opacity="0"/>
</linearGradient>
<linearGradient id="paint28_linear_1_339" x1="275.803" y1="140.307" x2="279.493" y2="151.294" gradientUnits="userSpaceOnUse">
<stop stop-color="#9DE3B5"/>
<stop offset="1" stop-color="#094E3D"/>
</linearGradient>
<linearGradient id="paint29_linear_1_339" x1="282.073" y1="149.37" x2="274.606" y2="148.739" gradientUnits="userSpaceOnUse">
<stop stop-color="#9DE3B5"/>
<stop offset="0.0001" stop-color="#9DE3B5"/>
<stop offset="1" stop-color="#9DE3B5" stop-opacity="0.0697988"/>
</linearGradient>
<linearGradient id="paint30_linear_1_339" x1="294.171" y1="150.957" x2="288.3" y2="163.621" gradientUnits="userSpaceOnUse">
<stop stop-color="#9DE3B5"/>
<stop offset="1" stop-color="#094E3D"/>
</linearGradient>
<linearGradient id="paint31_linear_1_339" x1="294.67" y1="162.236" x2="286.185" y2="161.517" gradientUnits="userSpaceOnUse">
<stop stop-color="#9DE3B5"/>
<stop offset="0.0001" stop-color="#9DE3B5"/>
<stop offset="1" stop-color="#9DE3B5" stop-opacity="0.0697988"/>
</linearGradient>
<linearGradient id="paint32_linear_1_339" x1="270.605" y1="126.468" x2="299.26" y2="143.062" gradientUnits="userSpaceOnUse">
<stop stop-color="#9CE3B4"/>
<stop offset="1" stop-color="#094E3D"/>
</linearGradient>
<linearGradient id="paint33_linear_1_339" x1="265.823" y1="122.778" x2="312.704" y2="141.816" gradientUnits="userSpaceOnUse">
<stop stop-color="#9DE3B5"/>
<stop offset="1" stop-color="#084D3D"/>
</linearGradient>
<linearGradient id="paint34_linear_1_339" x1="311.279" y1="145.254" x2="266.997" y2="119.339" gradientUnits="userSpaceOnUse">
<stop stop-color="#9DE3B5"/>
<stop offset="0.0001" stop-color="#9DE3B5"/>
<stop offset="1" stop-color="#9DE3B5" stop-opacity="0.0697988"/>
</linearGradient>
<linearGradient id="paint35_linear_1_339" x1="344.325" y1="137.706" x2="362.196" y2="180.93" gradientUnits="userSpaceOnUse">
<stop stop-color="#9DE3B5"/>
<stop offset="1" stop-color="#094E3D"/>
</linearGradient>
<linearGradient id="paint36_linear_1_339" x1="342.98" y1="144.835" x2="325.353" y2="176.926" gradientUnits="userSpaceOnUse">
<stop stop-color="#9DE3B5"/>
<stop offset="1" stop-color="#094E3D"/>
</linearGradient>
<radialGradient id="paint37_radial_1_339" cx="0" cy="0" r="1" gradientUnits="userSpaceOnUse" gradientTransform="translate(170.5 211) rotate(90) scale(57 1.5)">
<stop stop-color="#030A30"/>
<stop offset="1" stop-color="#030A30" stop-opacity="0"/>
</radialGradient>
<linearGradient id="paint38_linear_1_339" x1="170.5" y1="154" x2="170.5" y2="268" gradientUnits="userSpaceOnUse">
<stop stop-color="#37ABD2" stop-opacity="0"/>
<stop offset="1" stop-color="#E571F6"/>
</linearGradient>
<radialGradient id="paint39_radial_1_339" cx="0" cy="0" r="1" gradientUnits="userSpaceOnUse" gradientTransform="translate(191.5 211) rotate(90) scale(57 1.5)">
<stop stop-color="#030A30"/>
<stop offset="1" stop-color="#030A30" stop-opacity="0"/>
</radialGradient>
<linearGradient id="paint40_linear_1_339" x1="191.5" y1="154" x2="191.5" y2="268" gradientUnits="userSpaceOnUse">
<stop stop-color="#37ABD2" stop-opacity="0"/>
<stop offset="1" stop-color="#E571F6"/>
</linearGradient>
<radialGradient id="paint41_radial_1_339" cx="0" cy="0" r="1" gradientUnits="userSpaceOnUse" gradientTransform="translate(213.5 211) rotate(90) scale(57 1.5)">
<stop stop-color="#030A30"/>
<stop offset="1" stop-color="#030A30" stop-opacity="0"/>
</radialGradient>
<linearGradient id="paint42_linear_1_339" x1="213.5" y1="154" x2="213.5" y2="268" gradientUnits="userSpaceOnUse">
<stop stop-color="#37ABD2" stop-opacity="0"/>
<stop offset="1" stop-color="#E571F6"/>
</linearGradient>
<radialGradient id="paint43_radial_1_339" cx="0" cy="0" r="1" gradientUnits="userSpaceOnUse" gradientTransform="translate(234.5 211) rotate(90) scale(57 1.5)">
<stop stop-color="#030A30"/>
<stop offset="1" stop-color="#030A30" stop-opacity="0"/>
</radialGradient>
<linearGradient id="paint44_linear_1_339" x1="234.5" y1="154" x2="234.5" y2="268" gradientUnits="userSpaceOnUse">
<stop stop-color="#37ABD2" stop-opacity="0"/>
<stop offset="1" stop-color="#E571F6"/>
</linearGradient>
<radialGradient id="paint45_radial_1_339" cx="0" cy="0" r="1" gradientUnits="userSpaceOnUse" gradientTransform="translate(256.5 211) rotate(90) scale(57 1.5)">
<stop stop-color="#030A30"/>
<stop offset="1" stop-color="#030A30" stop-opacity="0"/>
</radialGradient>
<linearGradient id="paint46_linear_1_339" x1="256.5" y1="154" x2="256.5" y2="268" gradientUnits="userSpaceOnUse">
<stop stop-color="#37ABD2" stop-opacity="0"/>
<stop offset="1" stop-color="#E571F6"/>
</linearGradient>
<radialGradient id="paint47_radial_1_339" cx="0" cy="0" r="1" gradientUnits="userSpaceOnUse" gradientTransform="translate(277.5 211) rotate(90) scale(57 1.5)">
<stop stop-color="#030A30"/>
<stop offset="1" stop-color="#030A30" stop-opacity="0"/>
</radialGradient>
<linearGradient id="paint48_linear_1_339" x1="277.5" y1="154" x2="277.5" y2="268" gradientUnits="userSpaceOnUse">
<stop stop-color="#37ABD2" stop-opacity="0"/>
<stop offset="1" stop-color="#E571F6"/>
</linearGradient>
<radialGradient id="paint49_radial_1_339" cx="0" cy="0" r="1" gradientUnits="userSpaceOnUse" gradientTransform="translate(298.5 211) rotate(90) scale(57 1.5)">
<stop stop-color="#030A30"/>
<stop offset="1" stop-color="#030A30" stop-opacity="0"/>
</radialGradient>
<linearGradient id="paint50_linear_1_339" x1="298.5" y1="154" x2="298.5" y2="268" gradientUnits="userSpaceOnUse">
<stop stop-color="#37ABD2" stop-opacity="0"/>
<stop offset="1" stop-color="#E571F6"/>
</linearGradient>
<radialGradient id="paint51_radial_1_339" cx="0" cy="0" r="1" gradientUnits="userSpaceOnUse" gradientTransform="translate(320.5 211) rotate(90) scale(57 1.5)">
<stop stop-color="#030A30"/>
<stop offset="1" stop-color="#030A30" stop-opacity="0"/>
</radialGradient>
<linearGradient id="paint52_linear_1_339" x1="320.5" y1="154" x2="320.5" y2="268" gradientUnits="userSpaceOnUse">
<stop stop-color="#37ABD2" stop-opacity="0"/>
<stop offset="1" stop-color="#E571F6"/>
</linearGradient>
<radialGradient id="paint53_radial_1_339" cx="0" cy="0" r="1" gradientUnits="userSpaceOnUse" gradientTransform="translate(341.5 211) rotate(90) scale(57 1.5)">
<stop stop-color="#030A30"/>
<stop offset="1" stop-color="#030A30" stop-opacity="0"/>
</radialGradient>
<linearGradient id="paint54_linear_1_339" x1="341.5" y1="154" x2="341.5" y2="268" gradientUnits="userSpaceOnUse">
<stop stop-color="#37ABD2" stop-opacity="0"/>
<stop offset="1" stop-color="#E571F6"/>
</linearGradient>
<radialGradient id="paint55_radial_1_339" cx="0" cy="0" r="1" gradientUnits="userSpaceOnUse" gradientTransform="translate(363.5 211) rotate(90) scale(57 1.5)">
<stop stop-color="#030A30"/>
<stop offset="1" stop-color="#030A30" stop-opacity="0"/>
</radialGradient>
<linearGradient id="paint56_linear_1_339" x1="363.5" y1="154" x2="363.5" y2="268" gradientUnits="userSpaceOnUse">
<stop stop-color="#37ABD2" stop-opacity="0"/>
<stop offset="1" stop-color="#E571F6"/>
</linearGradient>
<radialGradient id="paint57_radial_1_339" cx="0" cy="0" r="1" gradientUnits="userSpaceOnUse" gradientTransform="translate(384.5 211) rotate(90) scale(57 1.5)">
<stop stop-color="#030A30"/>
<stop offset="1" stop-color="#030A30" stop-opacity="0"/>
</radialGradient>
<linearGradient id="paint58_linear_1_339" x1="384.5" y1="154" x2="384.5" y2="268" gradientUnits="userSpaceOnUse">
<stop stop-color="#37ABD2" stop-opacity="0"/>
<stop offset="1" stop-color="#E571F6"/>
</linearGradient>
<radialGradient id="paint59_radial_1_339" cx="0" cy="0" r="1" gradientUnits="userSpaceOnUse" gradientTransform="translate(406.5 211) rotate(90) scale(57 1.5)">
<stop stop-color="#030A30"/>
<stop offset="1" stop-color="#030A30" stop-opacity="0"/>
</radialGradient>
<linearGradient id="paint60_linear_1_339" x1="406.5" y1="154" x2="406.5" y2="268" gradientUnits="userSpaceOnUse">
<stop stop-color="#37ABD2" stop-opacity="0"/>
<stop offset="1" stop-color="#E571F6"/>
</linearGradient>
<radialGradient id="paint61_radial_1_339" cx="0" cy="0" r="1" gradientUnits="userSpaceOnUse" gradientTransform="translate(427.5 211) rotate(90) scale(57 1.5)">
<stop stop-color="#030A30"/>
<stop offset="1" stop-color="#030A30" stop-opacity="0"/>
</radialGradient>
<linearGradient id="paint62_linear_1_339" x1="427.5" y1="154" x2="427.5" y2="268" gradientUnits="userSpaceOnUse">
<stop stop-color="#37ABD2" stop-opacity="0"/>
<stop offset="1" stop-color="#E571F6"/>
</linearGradient>
<radialGradient id="paint63_radial_1_339" cx="0" cy="0" r="1" gradientUnits="userSpaceOnUse" gradientTransform="translate(448.5 211) rotate(90) scale(57 1.5)">
<stop stop-color="#030A30"/>
<stop offset="1" stop-color="#030A30" stop-opacity="0"/>
</radialGradient>
<linearGradient id="paint64_linear_1_339" x1="448.5" y1="154" x2="448.5" y2="268" gradientUnits="userSpaceOnUse">
<stop stop-color="#37ABD2" stop-opacity="0"/>
<stop offset="1" stop-color="#E571F6"/>
</linearGradient>
<radialGradient id="paint65_radial_1_339" cx="0" cy="0" r="1" gradientUnits="userSpaceOnUse" gradientTransform="translate(1.5 57) rotate(90) scale(57 1.5)">
<stop stop-color="#030A30"/>
<stop offset="1" stop-color="#030A30" stop-opacity="0"/>
</radialGradient>
<linearGradient id="paint66_linear_1_339" x1="1.5" y1="0" x2="1.5" y2="114" gradientUnits="userSpaceOnUse">
<stop stop-color="#37ABD2" stop-opacity="0"/>
<stop offset="1" stop-color="#E571F6"/>
</linearGradient>
<radialGradient id="paint67_radial_1_339" cx="0" cy="0" r="1" gradientUnits="userSpaceOnUse" gradientTransform="translate(1.5 57) rotate(90) scale(57 1.5)">
<stop stop-color="#030A30"/>
<stop offset="1" stop-color="#030A30" stop-opacity="0"/>
</radialGradient>
<linearGradient id="paint68_linear_1_339" x1="1.5" y1="0" x2="1.5" y2="114" gradientUnits="userSpaceOnUse">
<stop stop-color="#37ABD2" stop-opacity="0"/>
<stop offset="1" stop-color="#E571F6"/>
</linearGradient>
<radialGradient id="paint69_radial_1_339" cx="0" cy="0" r="1" gradientUnits="userSpaceOnUse" gradientTransform="translate(1.5 57) rotate(90) scale(57 1.5)">
<stop stop-color="#030A30"/>
<stop offset="1" stop-color="#030A30" stop-opacity="0"/>
</radialGradient>
<linearGradient id="paint70_linear_1_339" x1="1.5" y1="0" x2="1.5" y2="114" gradientUnits="userSpaceOnUse">
<stop stop-color="#37ABD2" stop-opacity="0"/>
<stop offset="1" stop-color="#E571F6"/>
</linearGradient>
<radialGradient id="paint71_radial_1_339" cx="0" cy="0" r="1" gradientUnits="userSpaceOnUse" gradientTransform="translate(1.5 57) rotate(90) scale(57 1.5)">
<stop stop-color="#030A30"/>
<stop offset="1" stop-color="#030A30" stop-opacity="0"/>
</radialGradient>
<linearGradient id="paint72_linear_1_339" x1="1.5" y1="0" x2="1.5" y2="114" gradientUnits="userSpaceOnUse">
<stop stop-color="#37ABD2" stop-opacity="0"/>
<stop offset="1" stop-color="#E571F6"/>
</linearGradient>
<radialGradient id="paint73_radial_1_339" cx="0" cy="0" r="1" gradientUnits="userSpaceOnUse" gradientTransform="translate(1.5 57) rotate(90) scale(57 1.5)">
<stop stop-color="#030A30"/>
<stop offset="1" stop-color="#030A30" stop-opacity="0"/>
</radialGradient>
<linearGradient id="paint74_linear_1_339" x1="1.5" y1="0" x2="1.5" y2="114" gradientUnits="userSpaceOnUse">
<stop stop-color="#37ABD2" stop-opacity="0"/>
<stop offset="1" stop-color="#E571F6"/>
</linearGradient>
<radialGradient id="paint75_radial_1_339" cx="0" cy="0" r="1" gradientUnits="userSpaceOnUse" gradientTransform="translate(1.5 57) rotate(90) scale(57 1.5)">
<stop stop-color="#030A30"/>
<stop offset="1" stop-color="#030A30" stop-opacity="0"/>
</radialGradient>
<linearGradient id="paint76_linear_1_339" x1="1.5" y1="0" x2="1.5" y2="114" gradientUnits="userSpaceOnUse">
<stop stop-color="#37ABD2" stop-opacity="0"/>
<stop offset="1" stop-color="#E571F6"/>
</linearGradient>
<radialGradient id="paint77_radial_1_339" cx="0" cy="0" r="1" gradientUnits="userSpaceOnUse" gradientTransform="translate(1.5 57) rotate(90) scale(57 1.5)">
<stop stop-color="#030A30"/>
<stop offset="1" stop-color="#030A30" stop-opacity="0"/>
</radialGradient>
<linearGradient id="paint78_linear_1_339" x1="1.5" y1="0" x2="1.5" y2="114" gradientUnits="userSpaceOnUse">
<stop stop-color="#37ABD2" stop-opacity="0"/>
<stop offset="1" stop-color="#E571F6"/>
</linearGradient>
<radialGradient id="paint79_radial_1_339" cx="0" cy="0" r="1" gradientUnits="userSpaceOnUse" gradientTransform="translate(1.5 57) rotate(90) scale(57 1.5)">
<stop stop-color="#030A30"/>
<stop offset="1" stop-color="#030A30" stop-opacity="0"/>
</radialGradient>
<linearGradient id="paint80_linear_1_339" x1="1.5" y1="0" x2="1.5" y2="114" gradientUnits="userSpaceOnUse">
<stop stop-color="#37ABD2" stop-opacity="0"/>
<stop offset="1" stop-color="#E571F6"/>
</linearGradient>
<radialGradient id="paint81_radial_1_339" cx="0" cy="0" r="1" gradientUnits="userSpaceOnUse" gradientTransform="translate(1.5 57) rotate(90) scale(57 1.5)">
<stop stop-color="#030A30"/>
<stop offset="1" stop-color="#030A30" stop-opacity="0"/>
</radialGradient>
<linearGradient id="paint82_linear_1_339" x1="1.5" y1="0" x2="1.5" y2="114" gradientUnits="userSpaceOnUse">
<stop stop-color="#37ABD2" stop-opacity="0"/>
<stop offset="1" stop-color="#E571F6"/>
</linearGradient>
<radialGradient id="paint83_radial_1_339" cx="0" cy="0" r="1" gradientUnits="userSpaceOnUse" gradientTransform="translate(1.5 57) rotate(90) scale(57 1.5)">
<stop stop-color="#030A30"/>
<stop offset="1" stop-color="#030A30" stop-opacity="0"/>
</radialGradient>
<linearGradient id="paint84_linear_1_339" x1="1.5" y1="0" x2="1.5" y2="114" gradientUnits="userSpaceOnUse">
<stop stop-color="#37ABD2" stop-opacity="0"/>
<stop offset="1" stop-color="#E571F6"/>
</linearGradient>
<radialGradient id="paint85_radial_1_339" cx="0" cy="0" r="1" gradientUnits="userSpaceOnUse" gradientTransform="translate(1.5 57) rotate(90) scale(57 1.5)">
<stop stop-color="#030A30"/>
<stop offset="1" stop-color="#030A30" stop-opacity="0"/>
</radialGradient>
<linearGradient id="paint86_linear_1_339" x1="1.5" y1="0" x2="1.5" y2="114" gradientUnits="userSpaceOnUse">
<stop stop-color="#37ABD2" stop-opacity="0"/>
<stop offset="1" stop-color="#E571F6"/>
</linearGradient>
<radialGradient id="paint87_radial_1_339" cx="0" cy="0" r="1" gradientUnits="userSpaceOnUse" gradientTransform="translate(1.5 57) rotate(90) scale(57 1.5)">
<stop stop-color="#030A30"/>
<stop offset="1" stop-color="#030A30" stop-opacity="0"/>
</radialGradient>
<linearGradient id="paint88_linear_1_339" x1="1.5" y1="0" x2="1.5" y2="114" gradientUnits="userSpaceOnUse">
<stop stop-color="#37ABD2" stop-opacity="0"/>
<stop offset="1" stop-color="#E571F6"/>
</linearGradient>
<radialGradient id="paint89_radial_1_339" cx="0" cy="0" r="1" gradientUnits="userSpaceOnUse" gradientTransform="translate(1.5 57) rotate(90) scale(57 1.5)">
<stop stop-color="#030A30"/>
<stop offset="1" stop-color="#030A30" stop-opacity="0"/>
</radialGradient>
<linearGradient id="paint90_linear_1_339" x1="1.5" y1="0" x2="1.5" y2="114" gradientUnits="userSpaceOnUse">
<stop stop-color="#37ABD2" stop-opacity="0"/>
<stop offset="1" stop-color="#E571F6"/>
</linearGradient>
<radialGradient id="paint91_radial_1_339" cx="0" cy="0" r="1" gradientUnits="userSpaceOnUse" gradientTransform="translate(1.5 57) rotate(90) scale(57 1.5)">
<stop stop-color="#030A30"/>
<stop offset="1" stop-color="#030A30" stop-opacity="0"/>
</radialGradient>
<linearGradient id="paint92_linear_1_339" x1="1.5" y1="0" x2="1.5" y2="114" gradientUnits="userSpaceOnUse">
<stop stop-color="#37ABD2" stop-opacity="0"/>
<stop offset="1" stop-color="#E571F6"/>
</linearGradient>
<clipPath id="clip0_1_339">
<rect width="620" height="475" fill="white"/>
</clipPath>
</defs>
</svg>
