<svg width="60" height="60" viewBox="0 0 60 60" fill="none" xmlns="http://www.w3.org/2000/svg">
<path d="M30 5.78125C16.7419 5.78125 6 16.6211 6 30C6 43.3789 16.7419 54.2188 30 54.2188C43.2581 54.2188 54 43.3789 54 30C54 16.6211 43.2581 5.78125 30 5.78125ZM41.7871 22.373L37.8484 41.1035C37.5581 42.4316 36.7742 42.7539 35.6806 42.1289L29.6806 37.666L26.7871 40.4785C26.4677 40.8008 26.1968 41.0742 25.5774 41.0742L26.0032 34.9121L37.1226 24.7754C37.6065 24.3457 37.0161 24.1016 36.3774 24.5312L22.6355 33.2617L16.7129 31.3965C15.4258 30.9863 15.3968 30.0977 16.9839 29.4727L40.1226 20.4687C41.1968 20.0781 42.1355 20.7324 41.7871 22.373Z" fill="#E571F6"/>
</svg>
