<svg width="60" height="60" viewBox="0 0 60 60" fill="none" xmlns="http://www.w3.org/2000/svg">
<g clip-path="url(#clip0_1_159)">
<path d="M55 15.749C53.1277 16.5415 51.1417 17.0617 49.1082 17.2922C51.2264 16.0793 52.8527 14.1586 53.6186 11.8701C51.605 13.0117 49.402 13.8161 47.1047 14.2484C45.2334 12.3437 42.5676 11.1534 39.617 11.1534C33.9518 11.1534 29.3586 15.5415 29.3586 20.9538C29.3586 21.722 29.4494 22.4699 29.6242 23.1874C21.0988 22.7786 13.5402 18.8769 8.48066 12.9474C7.59785 14.3949 7.09199 16.0786 7.09199 17.8744C7.09199 21.2747 8.90313 24.2744 11.6555 26.032C10.0265 25.9832 8.4333 25.5629 7.00898 24.806C7.0084 24.847 7.0084 24.8881 7.0084 24.9293C7.0084 29.6778 10.5443 33.639 15.2369 34.5394C13.7263 34.9319 12.1419 34.9893 10.6045 34.7073C11.9098 38.601 15.6982 41.4344 20.1869 41.5137C16.6762 44.1422 12.2529 45.7091 7.44707 45.7091C6.61895 45.7091 5.80254 45.6626 5 45.5721C9.53965 48.3528 14.9316 49.9754 20.7246 49.9754C39.5932 49.9754 49.9109 35.0413 49.9109 22.0904C49.9109 21.6653 49.9012 21.2426 49.8813 20.8224C51.8895 19.4353 53.6229 17.7174 55 15.749Z" fill="#E571F6"/>
</g>
<defs>
<clipPath id="clip0_1_159">
<rect width="50" height="39" fill="white" transform="translate(5 11)"/>
</clipPath>
</defs>
</svg>
